<svg width="3342" height="892" viewBox="0 0 3342 892" fill="none" xmlns="http://www.w3.org/2000/svg">
<path d="M343.75 891.28C295.573 891.28 255.371 889.33 223.145 885.42C190.918 881.84 165.202 874.19 145.996 862.47C127.116 851.08 113.607 833.83 105.469 810.71C97.656 787.6 93.75 756.68 93.75 717.94V531.418C93.75 515.793 91.96 504.725 88.379 498.215C85.124 491.704 76.823 487.961 63.477 486.984C50.456 485.682 29.2969 485.031 0 485.031V406.906C29.2969 406.906 50.456 406.255 63.477 404.953C76.823 403.651 85.124 399.908 88.379 393.723C91.96 387.212 93.75 376.145 93.75 360.52V173.996C93.75 135.259 97.656 104.335 105.469 81.223C113.607 58.111 127.116 40.858 145.996 29.465C165.202 17.746 190.918 10.096 223.145 6.51599C255.371 2.60899 295.573 0.656006 343.75 0.656006V78.781C306.641 78.781 277.344 79.432 255.859 80.734C234.701 82.036 219.076 85.78 208.984 91.965C199.219 98.15 193.034 108.566 190.43 123.215C187.826 137.538 186.523 157.72 186.523 183.762V361.984C186.523 385.096 182.943 404.953 175.781 421.555C168.62 437.831 151.693 445.969 125 445.969C151.693 445.969 168.62 454.27 175.781 470.871C182.943 487.147 186.523 506.841 186.523 529.953V708.18C186.523 734.22 187.826 754.56 190.43 769.21C193.034 783.53 199.219 793.79 208.984 799.97C219.076 806.16 234.701 809.9 255.859 811.2C277.344 812.51 306.641 813.16 343.75 813.16V891.28ZM752.93 891.28V813.16C790.039 813.16 819.173 812.51 840.332 811.2C861.816 809.9 877.441 806.16 887.207 799.97C897.298 793.79 903.646 783.53 906.25 769.21C908.854 754.56 910.156 734.22 910.156 708.18V529.953C910.156 506.841 913.737 487.147 920.898 470.871C928.06 454.27 944.99 445.969 971.68 445.969C944.99 445.969 928.06 437.831 920.898 421.555C913.737 404.953 910.156 385.096 910.156 361.984V183.762C910.156 157.72 908.854 137.538 906.25 123.215C903.646 108.566 897.298 98.15 887.207 91.965C877.441 85.78 861.816 82.036 840.332 80.734C819.173 79.432 790.039 78.781 752.93 78.781V0.656006C801.432 0.656006 841.634 2.60899 873.535 6.51599C905.762 10.096 931.315 17.746 950.2 29.465C969.4 40.858 982.91 58.111 990.72 81.223C998.86 104.335 1002.93 135.259 1002.93 173.996V360.52C1002.93 376.145 1004.56 387.212 1007.81 393.723C1011.39 399.908 1019.69 403.651 1032.71 404.953C1046.06 406.255 1067.38 406.906 1096.68 406.906V485.031C1067.38 485.031 1046.06 485.682 1032.71 486.984C1019.69 487.961 1011.39 491.704 1007.81 498.215C1004.56 504.725 1002.93 515.793 1002.93 531.418V717.94C1002.93 756.68 998.86 787.6 990.72 810.71C982.91 833.83 969.4 851.08 950.2 862.47C931.315 874.19 905.762 881.84 873.535 885.42C841.634 889.33 801.432 891.28 752.93 891.28Z" fill="#47D747"/>
<path d="M314.7 663.5V585.5L659.7 586.1C677.3 586.1 690.7 582.1 699.9 574.1C709.5 565.7 714.3 552.3 714.3 533.9C714.3 515.5 709.5 502.3 699.9 494.3C690.7 485.9 677.3 481.7 659.7 481.7H444.9C400.5 481.7 365.9 471.1 341.1 449.9C316.7 428.3 304.5 396.7 304.5 355.1C304.5 313.5 316.7 282.1 341.1 260.9C365.9 239.3 400.5 228.5 444.9 228.5H782.1V306.5L455.1 305.9C437.9 305.9 424.5 309.9 414.9 317.9C405.3 325.5 400.5 337.9 400.5 355.1C400.5 372.3 405.3 384.9 414.9 392.9C424.5 400.5 437.9 404.3 455.1 404.3H669.9C714.3 404.3 748.7 415.3 773.1 437.3C797.9 458.9 810.3 491.1 810.3 533.9C810.3 576.3 797.9 608.5 773.1 630.5C748.7 652.5 714.3 663.5 669.9 663.5H314.7Z" fill="#47D747"/>
<path d="M465.5 813H387.5V891H465.5V813Z" fill="#47D747"/>
<path d="M587.5 813H509.5V891H587.5V813Z" fill="#47D747"/>
<path d="M709.5 813H631.5V891H709.5V813Z" fill="#47D747"/>
<path d="M465.5 0H387.5V78H465.5V0Z" fill="#47D747"/>
<path d="M587.5 0H509.5V78H587.5V0Z" fill="#47D747"/>
<path d="M708.5 0H630.5V78H708.5V0Z" fill="#47D747"/>
<path d="M1299.39 663C1270.39 663 1249.05 655.833 1235.39 641.5C1221.72 626.833 1214.89 607.667 1214.89 584V463H1140.39V405.5H1214.89V326.5H1287.39V405.5H1394.39V463H1287.39V575C1287.39 595.333 1297.39 605.5 1317.39 605.5H1408.39V663H1299.39ZM1460.66 663V405.5H1657.66C1686.66 405.5 1707.99 412.833 1721.66 427.5C1735.33 441.833 1742.16 460.833 1742.16 484.5V538H1668.66V493.5C1668.66 473.5 1658.66 463.5 1638.66 463.5H1534.16V663H1460.66ZM1865.45 663C1838.45 663 1817.78 656.167 1803.45 642.5C1789.12 628.833 1781.95 609.333 1781.95 584C1781.95 559 1789.12 539.667 1803.45 526C1817.78 512.333 1838.45 505.5 1865.45 505.5H2057.45V493.5C2057.45 473.167 2047.45 463 2027.45 463H1815.45V405.5H2046.45C2076.78 405.5 2098.28 412.5 2110.95 426.5C2123.62 440.167 2129.95 459.5 2129.95 484.5V663H1865.45ZM1878.45 605.5H2057.45V563H1878.45C1872.12 563 1867.12 565 1863.45 569C1860.12 572.667 1858.45 577.667 1858.45 584C1858.45 590.333 1860.12 595.5 1863.45 599.5C1867.12 603.5 1872.12 605.5 1878.45 605.5ZM2282.13 663C2252.8 663 2231.3 655.667 2217.63 641C2204.3 626.333 2197.63 607.333 2197.63 584V405.5H2270.13V575.5C2270.13 595.5 2280.13 605.5 2300.13 605.5H2404.13C2424.13 605.5 2434.13 595.5 2434.13 575.5V405.5H2506.63V584C2506.63 607.333 2499.8 626.333 2486.13 641C2472.8 655.667 2451.47 663 2422.13 663H2282.13ZM2574.02 663V405.5H2907.52C2936.85 405.5 2958.35 412.833 2972.02 427.5C2985.69 441.833 2992.52 460.833 2992.52 484.5V663H2920.02V493.5C2920.02 473.167 2909.69 463 2889.02 463H2819.52V663H2747.02V463H2646.52V663H2574.02ZM3060.21 663V405.5H3257.21C3286.21 405.5 3307.54 412.833 3321.21 427.5C3334.88 441.833 3341.71 460.833 3341.71 484.5V538H3268.21V493.5C3268.21 473.5 3258.21 463.5 3238.21 463.5H3133.71V663H3060.21Z" fill="#47D747"/>
</svg>
